<?xml version="1.0" encoding="utf-8"?>
<!-- Generator: Adobe Illustrator 21.1.0, SVG Export Plug-In . SVG Version: 6.00 Build 0)  -->
<svg version="1.1" id="Livello_1" xmlns="http://www.w3.org/2000/svg" xmlns:xlink="http://www.w3.org/1999/xlink" x="0px" y="0px"
	 viewBox="0 0 701 422.9" style="enable-background:new 0 0 701 422.9;" xml:space="preserve">
<style type="text/css">
	.st0{fill:#333366;stroke:#000000;stroke-miterlimit:10;}
	.st1{fill:#E68139;}
	.st2{fill:#AF6045;}
	.st3{fill:#FFFFFF;}
	.st4{fill:#A09390;}
	.st5{fill:#716860;}
</style>
<rect x="-9" y="-11.1" class="st0" width="723" height="444"/>
<path class="st1" d="M395,310.3H242.2c-15.6,0-28.3-12.7-28.3-28.3V129.2c0-15.6,12.7-28.3,28.3-28.3H395
	c15.6,0,28.3,12.7,28.3,28.3V282C423.3,297.6,410.6,310.3,395,310.3z"/>
<path class="st2" d="M395,310.5c15.6,0,28.3-12.7,28.3-28.3V157.4L385.8,101h-0.1L357,215.6L280.8,101h-0.1l-29.2,209.5H395z"/>
<path class="st3" d="M242.2,310.5h22.2l8-118.9l24,118.9h45.2l24-118.9l8,118.9H395c1.5,0,3-0.1,4.5-0.4l-14-209.1h-28.3L319,291
	l-38.3-190h-28.3l-14,209.2C239.6,310.4,240.9,310.5,242.2,310.5z"/>
<g>
	<g>
		<path class="st3" d="M184.2,353.3c-0.2-4.1-0.5-9-0.4-12.6h-0.1c-1,3.4-2.2,7.1-3.7,11.1l-5.2,14.2h-2.9l-4.7-14
			c-1.4-4.1-2.6-7.9-3.4-11.4h-0.1c-0.1,3.6-0.3,8.6-0.6,12.9l-0.8,12.6h-3.6l2-29.3h4.8l5,14.2c1.2,3.6,2.2,6.8,3,9.9h0.1
			c0.7-3,1.8-6.2,3.1-9.9l5.2-14.2h4.8l1.8,29.3H185L184.2,353.3z"/>
		<path class="st3" d="M199.1,339.2c0,1.3-0.9,2.3-2.4,2.3c-1.3,0-2.3-1-2.3-2.3s1-2.4,2.4-2.4C198.2,336.8,199.1,337.9,199.1,339.2
			z M194.9,366.1v-21h3.8v21H194.9z"/>
		<path class="st3" d="M205,350.8c0-2.2,0-4-0.2-5.7h3.4l0.2,3.5h0.1c1-2,3.5-4,7-4c2.9,0,7.4,1.7,7.4,8.9v12.6h-3.8V354
			c0-3.4-1.3-6.2-4.9-6.2c-2.5,0-4.5,1.8-5.1,3.9c-0.2,0.5-0.3,1.1-0.3,1.8v12.6H205V350.8z"/>
		<path class="st3" d="M231.3,356.3c0.1,5.2,3.4,7.3,7.2,7.3c2.7,0,4.4-0.5,5.8-1.1l0.7,2.7c-1.3,0.6-3.6,1.3-7,1.3
			c-6.5,0-10.3-4.3-10.3-10.6s3.7-11.3,9.9-11.3c6.9,0,8.7,6,8.7,9.9c0,0.8-0.1,1.4-0.1,1.8L231.3,356.3L231.3,356.3z M242.5,353.6
			c0-2.4-1-6.2-5.3-6.2c-3.9,0-5.6,3.6-5.9,6.2H242.5z"/>
		<path class="st3" d="M250.9,351.7c0-2.5,0-4.6-0.2-6.6h3.3l0.1,4.1h0.2c1-2.8,3.3-4.6,5.8-4.6c0.4,0,0.7,0,1.1,0.1v3.6
			c-0.4-0.1-0.8-0.1-1.3-0.1c-2.7,0-4.6,2-5.1,4.9c-0.1,0.5-0.2,1.1-0.2,1.8v11.2h-3.8L250.9,351.7L250.9,351.7z"/>
		<path class="st3" d="M267.7,345.1l4.1,11.8c0.7,1.9,1.3,3.6,1.7,5.4h0.1c0.5-1.7,1.1-3.5,1.8-5.4l4.1-11.8h4l-8.3,21h-3.6l-8-21
			H267.7z"/>
		<path class="st3" d="M298.6,366.1l-0.3-2.6h-0.1c-1.2,1.7-3.4,3.1-6.4,3.1c-4.3,0-6.4-3-6.4-6c0-5.1,4.5-7.9,12.6-7.8v-0.4
			c0-1.7-0.5-4.9-4.8-4.9c-2,0-4,0.6-5.5,1.6l-0.9-2.5c1.7-1.1,4.3-1.9,6.9-1.9c6.4,0,8,4.4,8,8.6v7.9c0,1.8,0.1,3.6,0.3,5h-3.4
			V366.1z M298,355.4c-4.2-0.1-8.9,0.7-8.9,4.7c0,2.5,1.7,3.6,3.6,3.6c2.7,0,4.5-1.7,5.1-3.5c0.1-0.4,0.2-0.8,0.2-1.2V355.4
			L298,355.4z"/>
		<path class="st3" d="M323.1,352.4h-11.4V363h12.7v3.2H308v-29.3h15.8v3.2h-12v9.3h11.4v3H323.1z"/>
		<path class="st3" d="M329.2,350.8c0-2.2,0-4-0.2-5.7h3.4l0.2,3.5h0.1c1-2,3.5-4,7-4c2.9,0,7.4,1.7,7.4,8.9v12.6h-3.8V354
			c0-3.4-1.3-6.2-4.9-6.2c-2.5,0-4.5,1.8-5.1,3.9c-0.2,0.5-0.3,1.1-0.3,1.8v12.6h-3.8L329.2,350.8L329.2,350.8z"/>
		<path class="st3" d="M371.5,345.1c-0.1,1.5-0.2,3.2-0.2,5.8v12.2c0,4.8-1,7.8-3,9.6c-2,1.9-5,2.5-7.6,2.5c-2.5,0-5.3-0.6-7-1.7
			l1-2.9c1.4,0.9,3.6,1.7,6.2,1.7c3.9,0,6.8-2,6.8-7.3v-2.3h-0.1c-1.2,2-3.4,3.5-6.7,3.5c-5.2,0-8.9-4.4-8.9-10.3
			c0-7.1,4.6-11.2,9.5-11.2c3.6,0,5.6,1.9,6.6,3.6h0.1l0.2-3.2L371.5,345.1L371.5,345.1z M367.5,353.4c0-0.7,0-1.2-0.2-1.7
			c-0.7-2.2-2.6-4-5.3-4c-3.6,0-6.3,3.1-6.3,8c0,4.1,2.1,7.6,6.2,7.6c2.3,0,4.5-1.5,5.3-3.9c0.2-0.7,0.3-1.4,0.3-2V353.4z"/>
		<path class="st3" d="M381.6,339.2c0,1.3-0.9,2.3-2.4,2.3c-1.3,0-2.3-1-2.3-2.3s1-2.4,2.4-2.4C380.7,336.8,381.6,337.9,381.6,339.2
			z M377.4,366.1v-21h3.8v21H377.4z"/>
		<path class="st3" d="M387.5,350.8c0-2.2,0-4-0.2-5.7h3.4l0.2,3.5h0.1c1-2,3.5-4,7-4c2.9,0,7.4,1.7,7.4,8.9v12.6h-3.8V354
			c0-3.4-1.3-6.2-4.9-6.2c-2.5,0-4.5,1.8-5.1,3.9c-0.2,0.5-0.3,1.1-0.3,1.8v12.6h-3.8L387.5,350.8L387.5,350.8z"/>
		<path class="st3" d="M413.8,356.3c0.1,5.2,3.4,7.3,7.2,7.3c2.7,0,4.4-0.5,5.8-1.1l0.7,2.7c-1.3,0.6-3.6,1.3-7,1.3
			c-6.5,0-10.3-4.3-10.3-10.6s3.7-11.3,9.9-11.3c6.9,0,8.7,6,8.7,9.9c0,0.8-0.1,1.4-0.1,1.8L413.8,356.3L413.8,356.3z M425,353.6
			c0-2.4-1-6.2-5.3-6.2c-3.9,0-5.6,3.6-5.9,6.2H425z"/>
		<path class="st3" d="M435.5,356.3c0.1,5.2,3.4,7.3,7.2,7.3c2.7,0,4.4-0.5,5.8-1.1l0.7,2.7c-1.3,0.6-3.6,1.3-7,1.3
			c-6.5,0-10.3-4.3-10.3-10.6s3.7-11.3,9.9-11.3c6.9,0,8.7,6,8.7,9.9c0,0.8-0.1,1.4-0.1,1.8L435.5,356.3L435.5,356.3z M446.7,353.6
			c0-2.4-1-6.2-5.3-6.2c-3.9,0-5.6,3.6-5.9,6.2H446.7z"/>
		<path class="st3" d="M455.1,351.7c0-2.5,0-4.6-0.2-6.6h3.3l0.1,4.1h0.2c1-2.8,3.3-4.6,5.8-4.6c0.4,0,0.7,0,1.1,0.1v3.6
			c-0.4-0.1-0.8-0.1-1.3-0.1c-2.7,0-4.6,2-5.1,4.9c-0.1,0.5-0.2,1.1-0.2,1.8v11.2H455v-14.4H455.1z"/>
		<path class="st3" d="M473.8,339.2c0,1.3-0.9,2.3-2.4,2.3c-1.3,0-2.3-1-2.3-2.3s1-2.4,2.4-2.4C472.9,336.8,473.8,337.9,473.8,339.2
			z M469.5,366.1v-21h3.8v21H469.5z"/>
		<path class="st3" d="M479.7,350.8c0-2.2,0-4-0.2-5.7h3.4l0.2,3.5h0.1c1-2,3.5-4,7-4c2.9,0,7.4,1.7,7.4,8.9v12.6h-3.8V354
			c0-3.4-1.3-6.2-4.9-6.2c-2.5,0-4.5,1.8-5.1,3.9c-0.2,0.5-0.3,1.1-0.3,1.8v12.6h-3.8L479.7,350.8L479.7,350.8z"/>
		<path class="st3" d="M521.9,345.1c-0.1,1.5-0.2,3.2-0.2,5.8v12.2c0,4.8-1,7.8-3,9.6c-2,1.9-5,2.5-7.6,2.5c-2.5,0-5.3-0.6-7-1.7
			l1-2.9c1.4,0.9,3.6,1.7,6.2,1.7c3.9,0,6.8-2,6.8-7.3v-2.3H518c-1.2,2-3.4,3.5-6.7,3.5c-5.2,0-8.9-4.4-8.9-10.3
			c0-7.1,4.6-11.2,9.5-11.2c3.6,0,5.6,1.9,6.6,3.6h0.1l0.2-3.2L521.9,345.1L521.9,345.1z M518,353.4c0-0.7,0-1.2-0.2-1.7
			c-0.7-2.2-2.6-4-5.3-4c-3.6,0-6.3,3.1-6.3,8c0,4.1,2.1,7.6,6.2,7.6c2.3,0,4.5-1.5,5.3-3.9c0.2-0.7,0.3-1.4,0.3-2V353.4z"/>
	</g>
</g>
<path class="st4" d="M420.5,89H242.2L292,61h176.9L434,84.9C430.1,87.6,425.4,89,420.5,89z"/>
<path class="st5" d="M482.5,244l-44.8,43.5V114.8c0-7.7,3.7-14.9,9.9-19.5L482.5,70V244z"/>
</svg>
