<?xml version="1.0" encoding="utf-8"?>
<!-- Generator: Adobe Illustrator 21.1.0, SVG Export Plug-In . SVG Version: 6.00 Build 0)  -->
<svg version="1.1" id="Livello_1" xmlns="http://www.w3.org/2000/svg" xmlns:xlink="http://www.w3.org/1999/xlink" x="0px" y="0px"
	 viewBox="0 0 59.3 59.3" style="enable-background:new 0 0 59.3 59.3;" xml:space="preserve">
<style type="text/css">
	.st0{fill:#666666;enable-background:new    ;}
</style>
<path class="st0" d="M40,56.3c0-6.3,0-12.2,0-18.6c1.8,0,3.4,0,5.1,0c1.2,0,1.8-0.4,2-1.7c0.1-2.1,0.5-4.3,0.8-6.9c-2.2,0-4.1,0-6,0
	c-1.6,0.1-2.2-0.5-2-2.1c0-0.4,0-0.8,0-1.2c0-5.1,0.3-5.5,5.5-5.4c2.5,0,3-0.8,3-3.1c-0.3-5.5,0.7-4.8-5-5
	c-6.9-0.3-10.9,2.2-12.1,7.6c-0.4,2.2-0.4,4.5-0.4,6.8c0,1.7-0.5,2.4-2.2,2.4c-4.8,0.1-4.8,0.1-4.8,5.1c0,3.8-0.4,3.5,3.5,3.5
	c3.8,0,3.5-0.4,3.5,3.5c0,4.8,0,9.7,0,14.5c0,1.8-0.4,2.5-2.4,2.5C12,58.2-1.5,42.2,1.3,25.9C3.8,10.5,15.8,0.5,31.3,1
	c13,0.4,24.1,10.4,26.6,23.7c2.4,12.6-4.8,26.1-16.4,31.1C41.1,56.1,40.7,56.1,40,56.3z"/>
</svg>
