<?xml version="1.0" encoding="utf-8"?>
<!-- Generator: Adobe Illustrator 21.1.0, SVG Export Plug-In . SVG Version: 6.00 Build 0)  -->
<svg version="1.1" id="Livello_1" xmlns="http://www.w3.org/2000/svg" xmlns:xlink="http://www.w3.org/1999/xlink" x="0px" y="0px"
	 viewBox="0 0 59.3 59.3" style="enable-background:new 0 0 59.3 59.3;" xml:space="preserve">
<style type="text/css">
	.st0{fill:#666666;}
</style>
<g>
	<path class="st0" d="M29.7,58.8C13.8,58.9,0.6,46,0.5,30.1C0.4,14.1,13.3,0.8,29,0.5C45.3,0.4,58.7,13,58.8,29.2
		C58.9,45.9,46.4,58.7,29.7,58.8z M10.4,29c0.1,3.2,0.3,6.4,0.4,9.6c0.4,5.3,3.6,9.2,8.8,9.6c6.3,0.5,12.8,0.7,19.1,0.1
		c6.3-0.5,9.3-3.6,9.7-9.5c0.4-6.3,0.4-12.5,0-18.8C48,14.5,44,11,38.7,10.8c-6-0.3-12.1-0.3-18.1,0C15,11,11.2,15,10.8,20.4
		C10.6,23.3,10.5,26.1,10.4,29z"/>
	<path class="st0" d="M44.3,30c0,2.4,0.1,4.9,0,7.3c-0.1,4.4-2.5,6.8-6.9,6.9c-4.9,0.1-9.9,0.1-14.8,0c-4.8-0.1-7.1-2-7.3-6.8
		C14.9,32,15,26.4,15.3,20.9c0.1-3.2,2.3-5.3,5.5-5.5c5.7-0.3,11.5-0.3,17.3,0C42,15.6,44,18,44.3,22C44.4,24.5,44.3,27.2,44.3,30
		L44.3,30z M29.7,20.1c-5.5,0-9.5,4-9.5,9.5s4.3,9.7,9.6,9.7s9.6-4.4,9.6-9.9C39.3,24.2,35.1,20.1,29.7,20.1z M42.3,20.4
		c0-0.4,0-0.7,0-1.1c-0.9-0.7-1.7-1.6-2.7-1.7c-1.5-0.3-2.5,0.8-2.4,2.4c0,1.6,1.1,2.5,2.5,2.3C40.5,22.1,41.3,21,42.3,20.4z"/>
	<path class="st0" d="M35.3,29.9c0,3.1-2.7,5.6-5.9,5.5c-2.9-0.1-5.5-2.7-5.5-5.7s2.7-5.6,5.9-5.5C32.9,24.2,35.5,26.8,35.3,29.9z"
		/>
</g>
</svg>
