<?xml version="1.0" encoding="utf-8"?>
<!-- Generator: Adobe Illustrator 21.1.0, SVG Export Plug-In . SVG Version: 6.00 Build 0)  -->
<svg version="1.1" id="Livello_1" xmlns="http://www.w3.org/2000/svg" xmlns:xlink="http://www.w3.org/1999/xlink" x="0px" y="0px"
	 viewBox="0 0 59.3 59.3" style="enable-background:new 0 0 59.3 59.3;" xml:space="preserve">
<style type="text/css">
	.st0{fill:#666666;enable-background:new    ;}
</style>
<path class="st0" d="M29.7,0.4c16.5-0.3,29.2,13.6,29.2,29c-0.1,16.5-13.1,29.4-29.6,29.4C13.3,58.8,0.5,45.6,0.5,29.5
	C0.3,13.1,14.1-0.1,29.7,0.4z M24.7,23.6c0,7.4,0,14,0,21.1c1.3,0,2.4,0,3.6,0c3.2,0,3.2,0,3.2-3.1c0-2.9,0-5.8,0-8.7
	c0-2.4,1.2-3.6,3.2-3.6c2.3,0,2.9,1.6,3.1,3.5c0.1,1.9,0,3.6,0,5.5c0,2,0,4.1,0,6.4c2,0,3.7,0.1,5.5-0.1c0.5,0,1.3-1.1,1.5-1.6
	c0.1-3.9,0.3-7.9,0-11.8c-0.3-5.9-3.3-8.7-9-8c-1.6,0.3-3.2,1.2-4.7,1.7C29.8,22.1,27.1,24.4,24.7,23.6z M21.1,34.4L21.1,34.4
	c0-2,0-4,0-6c-0.1-5.2,1.2-4.7-5-4.7c-1.6,0-2.1,0.5-2.1,2c0,4.7,0,9.5,0,14.2c0,5.4-1.2,4.8,5.1,4.8c1.6,0,2-0.7,2-2.1
	C21,39.9,21.1,37.1,21.1,34.4z M17.6,13.5c-2.3,0-4,1.6-4,3.7c0,2.3,1.9,4.1,4.1,4.1c2,0,3.7-1.9,3.7-3.9
	C21.5,15.3,19.9,13.5,17.6,13.5z"/>
</svg>
